HIERARCHY
ROOT Hips
{
	OFFSET 0.000000 0.000000 0.000000
	CHANNELS 6 Xposition Yposition Zposition Zrotation Yrotation Xrotation 
	JOINT LHipJoint
	{
		OFFSET 0.000000 0.000000 0.000000
		CHANNELS 3 Zrotation Yrotation Xrotation
		JOINT LeftUpLeg
		{
			OFFSET 1.363060 -1.794630 0.839290
			CHANNELS 3 Zrotation Yrotation Xrotation
			JOINT LeftLeg
			{
				OFFSET 2.448110 -6.726130 0.000000
				CHANNELS 3 Zrotation Yrotation Xrotation
				JOINT LeftFoot
				{
					OFFSET 2.562200 -7.039590 0.000000
					CHANNELS 3 Zrotation Yrotation Xrotation
					JOINT LeftToeBase
					{
						OFFSET 0.157640 -0.433110 2.322550
						CHANNELS 3 Zrotation Yrotation Xrotation
						End Site
						{
							OFFSET 0.000000 0.000000 0.000000
						}
					}
				}
			}
		}
	}
	JOINT RHipJoint
	{
		OFFSET 0.000000 0.000000 0.000000
		CHANNELS 3 Zrotation Yrotation Xrotation
		JOINT RightUpLeg
		{
			OFFSET -1.305520 -1.794630 0.839290
			CHANNELS 3 Zrotation Yrotation Xrotation
			JOINT RightLeg
			{
				OFFSET -2.542530 -6.985550 0.000000
				CHANNELS 3 Zrotation Yrotation Xrotation
				JOINT RightFoot
				{
					OFFSET -2.568260 -7.056230 0.000000
					CHANNELS 3 Zrotation Yrotation Xrotation
					JOINT RightToeBase
					{
						OFFSET -0.164730 -0.452590 2.363150
						CHANNELS 3 Zrotation Yrotation Xrotation
						End Site
						{
							OFFSET 0.000000 0.000000 0.000000
						}
					}
				}
			}
		}
	}
	JOINT LowerBack
	{
		OFFSET 0.000000 0.000000 0.000000
		CHANNELS 3 Zrotation Yrotation Xrotation
		JOINT Spine
		{
			OFFSET 0.028270 2.035590 -0.193380
			CHANNELS 3 Zrotation Yrotation Xrotation
			JOINT Spine1
			{
				OFFSET 0.056720 2.048850 -0.042750
				CHANNELS 3 Zrotation Yrotation Xrotation
				JOINT Neck
				{
					OFFSET 0.000000 0.000000 0.000000
					CHANNELS 3 Zrotation Yrotation Xrotation
					JOINT Neck1
					{
						OFFSET -0.054170 1.746240 0.172020
						CHANNELS 3 Zrotation Yrotation Xrotation
						JOINT Head
						{
							OFFSET 0.104070 1.761360 -0.123970
							CHANNELS 3 Zrotation Yrotation Xrotation
							End Site
							{
								OFFSET 0.000000 0.000000 0.000000
							}
						}
					}
				}
				JOINT LeftShoulder
				{
					OFFSET 0.000000 0.000000 0.000000
					CHANNELS 3 Zrotation Yrotation Xrotation
					JOINT LeftArm
					{
						OFFSET 3.362410 1.200890 -0.311210
						CHANNELS 3 Zrotation Yrotation Xrotation
						JOINT LeftForeArm
						{
							OFFSET 4.983000 -0.000000 -0.000000
							CHANNELS 3 Zrotation Yrotation Xrotation
							JOINT LeftHand
							{
								OFFSET 3.483560 -0.000000 -0.000000
								CHANNELS 3 Zrotation Yrotation Xrotation
								JOINT LeftFingerBase
								{
									OFFSET 0.000000 0.000000 0.000000
									CHANNELS 3 Zrotation Yrotation Xrotation
									JOINT LeftHandIndex1
									{
										OFFSET 0.715260 -0.000000 -0.000000
										CHANNELS 3 Zrotation Yrotation Xrotation
										End Site
										{
											OFFSET 0.000000 0.000000 0.000000
										}
									}
								}
								JOINT LThumb
								{
									OFFSET 0.000000 0.000000 0.000000
									CHANNELS 3 Zrotation Yrotation Xrotation
									End Site
									{
										OFFSET 0.000000 0.000000 0.000000
									}
								}
							}
						}
					}
				}
				JOINT RightShoulder
				{
					OFFSET 0.000000 0.000000 0.000000
					CHANNELS 3 Zrotation Yrotation Xrotation
					JOINT RightArm
					{
						OFFSET -3.136600 1.374050 -0.404650
						CHANNELS 3 Zrotation Yrotation Xrotation
						JOINT RightForeArm
						{
							OFFSET -5.241900 -0.000000 -0.000000
							CHANNELS 3 Zrotation Yrotation Xrotation
							JOINT RightHand
							{
								OFFSET -3.444170 -0.000000 -0.000000
								CHANNELS 3 Zrotation Yrotation Xrotation
								JOINT RightFingerBase
								{
									OFFSET 0.000000 0.000000 0.000000
									CHANNELS 3 Zrotation Yrotation Xrotation
									JOINT RightHandIndex1
									{
										OFFSET -0.622530 -0.000000 -0.000000
										CHANNELS 3 Zrotation Yrotation Xrotation
										End Site
										{
											OFFSET 0.000000 0.000000 0.000000
										}
									}
								}
								JOINT RThumb
								{
									OFFSET 0.000000 0.000000 0.000000
									CHANNELS 3 Zrotation Yrotation Xrotation
									End Site
									{
										OFFSET 0.000000 0.000000 0.000000
									}
								}
							}
						}
					}
				}
			}
		}
	}
}
MOTION
Frames: 9
Frame Time: 0.008333
8.136151 15.407344 10.515414 -6.242554 -66.808275 3.278896 6.906827 31.513503 -4.814118 -27.423719 -24.868584 -23.093127 28.691172 1.635008 65.495940 -5.920397 4.444388 -12.316956 0.000000 0.000000 0.000000 -24.361544 -37.786079 4.363329 30.803883 6.814815 -4.666662 2.213623 -16.842821 34.239844 4.142005 -1.755834 -32.300206 0.000000 0.000000 0.000000 -2.672625 0.535347 15.740269 -0.041792 4.910904 -3.623626 -6.888705 3.721849 -12.679167 -0.039910 1.006437 5.010700 0.000000 0.000000 0.000000 0.000000 0.000000 0.000000 10.406431 -19.354049 -6.095589 -7.657148 -17.881946 9.116076 118.945207 -51.910343 -0.000000 0.000000 0.000000 0.000000 0.000000 0.000000 0.000000 0.000000 0.000000 0.000000 0.000000 0.000000 0.000000 -17.245148 9.514206 -31.106686 91.411008 23.583216 55.022034 -105.721516 54.904846 0.000000 0.000000 0.000000 0.000000 0.000000 0.000000 0.000000 0.000000 0.000000 0.000000 0.000000 0.000000 0.000000 
8.192934 15.388943 10.600387 -5.863706 -67.272633 3.307301 7.403122 31.239028 -4.251740 -26.992879 -24.518697 -23.037376 28.345525 1.567178 64.192587 -5.026749 3.262276 -12.096966 0.000000 0.000000 0.000000 -24.318472 -37.747795 4.070957 30.541816 7.034636 -5.159308 2.297649 -16.876695 34.196108 4.032591 -1.702886 -32.430495 0.000000 0.000000 0.000000 -2.629389 0.751634 15.437854 -0.076120 5.053516 -3.662311 -7.314555 3.799893 -12.508795 0.027952 0.977377 4.997258 0.000000 0.000000 0.000000 0.000000 0.000000 0.000000 10.381729 -19.823503 -5.629271 -8.119443 -18.255970 9.597509 118.130316 -50.483644 -0.000000 0.000000 0.000000 0.000000 0.000000 0.000000 0.000000 0.000000 0.000000 0.000000 0.000000 0.000000 0.000000 -17.651535 9.386556 -31.704017 91.115821 23.288685 55.290940 -105.898651 54.116707 0.000000 0.000000 0.000000 0.000000 0.000000 0.000000 0.000000 0.000000 0.000000 0.000000 0.000000 0.000000 0.000000 
8.249716 15.370542 10.685360 -5.485284 -67.760263 3.342378 7.869890 30.922905 -3.688480 -26.517999 -24.144013 -22.984591 27.989368 1.523087 62.852273 -4.203860 2.132391 -11.903571 0.000000 0.000000 0.000000 -24.251928 -37.690358 3.770658 30.268881 7.265618 -5.674661 2.386885 -16.915888 34.152111 3.925454 -1.659281 -32.549399 0.000000 0.000000 0.000000 -2.596626 0.970361 15.126374 -0.110543 5.200472 -3.699245 -7.733879 3.888910 -12.344766 0.106204 0.946431 4.991004 0.000000 0.000000 0.000000 0.000000 0.000000 0.000000 10.348044 -20.274667 -5.182064 -8.564291 -18.674092 10.078315 117.322617 -49.092379 -0.000000 0.000000 0.000000 0.000000 0.000000 0.000000 0.000000 0.000000 0.000000 0.000000 0.000000 0.000000 0.000000 -18.049858 9.267522 -32.298837 90.808919 22.987234 55.571379 -106.067714 53.314423 0.000000 0.000000 0.000000 0.000000 0.000000 0.000000 0.000000 0.000000 0.000000 0.000000 0.000000 0.000000 0.000000 
8.306499 15.352142 10.770332 -5.108152 -68.271888 3.384620 8.303980 30.565160 -3.124301 -25.997311 -23.744138 -22.934752 27.621856 1.502621 61.475892 -3.452538 1.060038 -11.728627 0.000000 0.000000 0.000000 -24.161476 -37.612798 3.462836 29.984323 7.507897 -6.213323 2.481359 -16.960496 34.107988 3.820645 -1.625170 -32.656668 0.000000 0.000000 0.000000 -2.574705 1.190607 14.806260 -0.144670 5.350917 -3.734950 -8.145229 3.987765 -12.186443 0.193980 0.913808 4.989485 0.000000 0.000000 0.000000 0.000000 0.000000 0.000000 10.306917 -20.712583 -4.750914 -8.991832 -19.117791 10.552388 116.545129 -47.731010 -0.000000 0.000000 0.000000 0.000000 0.000000 0.000000 0.000000 0.000000 0.000000 0.000000 0.000000 0.000000 0.000000 -18.439829 9.159493 -32.891633 90.490404 22.680629 55.864845 -106.229581 52.498544 0.000000 0.000000 0.000000 0.000000 0.000000 0.000000 0.000000 0.000000 0.000000 0.000000 0.000000 0.000000 0.000000 
8.364800 15.328678 10.858855 -4.755815 -68.754945 3.415290 8.741818 30.262719 -2.576994 -25.614892 -23.393904 -22.772684 27.157907 1.409241 60.139319 -2.728571 -0.140309 -11.748367 0.000000 0.000000 0.000000 -24.093452 -37.542206 3.180321 29.682512 7.792823 -6.767672 2.581614 -17.047530 34.155586 3.754206 -1.629771 -32.810191 0.000000 0.000000 0.000000 -2.539440 1.405965 14.519889 -0.176620 5.506730 -3.765430 -8.498067 4.103358 -12.035039 0.288107 0.881365 4.974430 0.000000 0.000000 0.000000 0.000000 0.000000 0.000000 10.296875 -21.118273 -4.315934 -9.554328 -19.628743 11.011461 115.865516 -46.353567 -0.000000 0.000000 0.000000 0.000000 0.000000 0.000000 0.000000 0.000000 0.000000 0.000000 0.000000 0.000000 0.000000 -18.811117 9.029252 -33.488336 90.166002 22.402802 56.222307 -106.346911 51.639335 0.000000 0.000000 0.000000 0.000000 0.000000 0.000000 0.000000 0.000000 0.000000 0.000000 0.000000 0.000000 0.000000 
8.424739 15.299751 10.951209 -4.428656 -69.201904 3.431795 9.193191 30.025959 -2.049701 -25.393247 -23.103783 -22.489027 26.606642 1.223990 58.843660 -2.027684 -1.486832 -11.988908 0.000000 0.000000 0.000000 -24.050913 -37.481859 2.927744 29.359021 8.122297 -7.340315 2.687148 -17.180521 34.301774 3.728194 -1.675454 -33.013541 0.000000 0.000000 0.000000 -2.489431 1.615424 14.271422 -0.206228 5.666435 -3.790816 -8.787246 4.233060 -11.891530 0.387752 0.849263 4.944721 0.000000 0.000000 0.000000 0.000000 0.000000 0.000000 10.322505 -21.492955 -3.880401 -10.268376 -20.208349 11.454394 115.294604 -44.962860 -0.000000 0.000000 0.000000 0.000000 0.000000 0.000000 0.000000 0.000000 0.000000 0.000000 0.000000 0.000000 0.000000 -19.163206 8.874873 -34.086706 89.837689 22.160017 56.644541 -106.417567 50.739284 0.000000 0.000000 0.000000 0.000000 0.000000 0.000000 0.000000 0.000000 0.000000 0.000000 0.000000 0.000000 0.000000 
8.484679 15.270825 11.043562 -4.102045 -69.669123 3.454736 9.615528 29.751318 -1.523745 -25.133338 -22.794197 -22.208841 26.065105 1.047303 57.506820 -1.397975 -2.771511 -12.249181 0.000000 0.000000 0.000000 -23.983069 -37.401473 2.671117 29.016904 8.462102 -7.941666 2.797290 -17.319950 34.447303 3.703521 -1.730978 -33.203431 0.000000 0.000000 0.000000 -2.450674 1.824758 14.015807 -0.235194 5.826722 -3.815995 -9.066150 4.367064 -11.754685 0.495023 0.815744 4.918022 0.000000 0.000000 0.000000 0.000000 0.000000 0.000000 10.343417 -21.862702 -3.465351 -10.970753 -20.792664 11.882910 114.774498 -43.610014 -0.000000 0.000000 0.000000 0.000000 0.000000 0.000000 0.000000 0.000000 0.000000 0.000000 0.000000 0.000000 0.000000 -19.506717 8.734795 -34.679461 89.500124 21.919218 57.077012 -106.483387 49.832740 0.000000 0.000000 0.000000 0.000000 0.000000 0.000000 0.000000 0.000000 0.000000 0.000000 0.000000 0.000000 0.000000 
8.544618 15.241898 11.135916 -3.776542 -70.156877 3.484581 10.005547 29.438810 -0.999065 -24.833170 -22.465059 -21.933368 25.533743 0.879746 56.129740 -0.839259 -3.989424 -12.520196 0.000000 0.000000 0.000000 -23.889635 -37.300321 2.410756 28.655070 8.811838 -8.572352 2.912130 -17.465951 34.591998 3.680229 -1.796493 -33.379557 0.000000 0.000000 0.000000 -2.422721 2.033652 13.753101 -0.263458 5.987431 -3.841021 -9.335008 4.504936 -11.624427 0.609429 0.780888 4.893502 0.000000 0.000000 0.000000 0.000000 0.000000 0.000000 10.359311 -22.228661 -3.069915 -11.660519 -21.375911 12.295137 114.304616 -42.295389 -0.000000 0.000000 0.000000 0.000000 0.000000 0.000000 0.000000 0.000000 0.000000 0.000000 0.000000 0.000000 0.000000 -19.841298 8.609524 -35.266493 89.153574 21.681545 57.520199 -106.545068 48.919965 0.000000 0.000000 0.000000 0.000000 0.000000 0.000000 0.000000 0.000000 0.000000 0.000000 0.000000 0.000000 0.000000 
8.607032 15.210184 11.229493 -3.482229 -70.591712 3.504799 10.378859 29.187529 -0.509990 -24.641336 -22.203260 -21.618770 24.967233 0.667705 54.850661 -0.346893 -5.210690 -12.933094 0.000000 0.000000 0.000000 -23.810146 -37.211313 2.185157 28.282515 9.198570 -9.216913 3.001542 -17.636680 34.828670 3.689990 -1.893096 -33.579410 0.000000 0.000000 0.000000 -2.382261 2.228892 13.538841 -0.289441 6.142500 -3.861209 -9.557727 4.643966 -11.504737 0.716343 0.747229 4.861636 0.000000 0.000000 0.000000 0.000000 0.000000 0.000000 10.396779 -22.549222 -2.694086 -12.468949 -22.020751 12.703602 113.934022 -41.003947 -0.000000 0.000000 0.000000 0.000000 0.000000 0.000000 0.000000 0.000000 0.000000 0.000000 0.000000 0.000000 0.000000 -20.148279 8.470466 -35.821331 88.813775 21.489201 57.979734 -106.596291 48.011294 0.000000 0.000000 0.000000 0.000000 0.000000 0.000000 0.000000 0.000000 0.000000 0.000000 0.000000 0.000000 0.000000 
